<?xml version="1.0" encoding="UTF-8" standalone="no"?>
<!-- Created with Inkscape (http://www.inkscape.org/) --><svg height="751" id="svg2" inkscape:output_extension="org.inkscape.output.svg.inkscape" inkscape:version="0.46" sodipodi:docname="Stop_sign_MUTCD.svg" sodipodi:version="0.32" version="1.0" width="751" xmlns="http://www.w3.org/2000/svg" xmlns:cc="http://creativecommons.org/ns#" xmlns:dc="http://purl.org/dc/elements/1.1/" xmlns:inkscape="http://www.inkscape.org/namespaces/inkscape" xmlns:rdf="http://www.w3.org/1999/02/22-rdf-syntax-ns#" xmlns:sodipodi="http://sodipodi.sourceforge.net/DTD/sodipodi-0.dtd" xmlns:svg="http://www.w3.org/2000/svg">
  <metadata>
    <rdf:RDF xmlns:cc="http://web.resource.org/cc/" xmlns:dc="http://purl.org/dc/elements/1.1/" xmlns:rdf="http://www.w3.org/1999/02/22-rdf-syntax-ns#">
      <cc:Work rdf:about="">
        <dc:title></dc:title>
        <dc:description></dc:description>
        <dc:subject>
          <rdf:Bag>
            <rdf:li>unsorted</rdf:li>
          </rdf:Bag>
        </dc:subject>
        <dc:publisher>
          <cc:Agent rdf:about="http://www.openclipart.org/">
            <dc:title>Open Clip Art Library, Source: Wikimedia Commons, Source: Wikimedia Commons, Source: Wikimedia Commons</dc:title>
          </cc:Agent>
        </dc:publisher>
        <dc:creator>
          <cc:Agent>
            <dc:title></dc:title>
          </cc:Agent>
        </dc:creator>
        <dc:rights>
          <cc:Agent>
            <dc:title></dc:title>
          </cc:Agent>
        </dc:rights>
        <dc:date></dc:date>
        <dc:format>image/svg+xml</dc:format>
        <dc:type rdf:resource="http://purl.org/dc/dcmitype/StillImage"/>
        <cc:license rdf:resource="http://en.wikipedia.org/wiki/Public_domain"/>
        <dc:language>en</dc:language>
      </cc:Work>
    </rdf:RDF>
  </metadata>
  <defs id="defs4">
    <inkscape:perspective id="perspective10" inkscape:persp3d-origin="372.04724 : 350.78739 : 1" inkscape:vp_x="0 : 526.18109 : 1" inkscape:vp_y="0 : 1000 : 0" inkscape:vp_z="744.09448 : 526.18109 : 1" sodipodi:type="inkscape:persp3d"/>
    <inkscape:perspective id="perspective2455" inkscape:persp3d-origin="300.5 : 200.33333 : 1" inkscape:vp_x="0 : 300.5 : 1" inkscape:vp_y="0 : 1000 : 0" inkscape:vp_z="601 : 300.5 : 1" sodipodi:type="inkscape:persp3d"/>
  </defs>
  <sodipodi:namedview bordercolor="#666666" borderopacity="1.0" gridtolerance="10000" guidetolerance="10" id="base" inkscape:current-layer="layer1" inkscape:cx="375.5" inkscape:cy="375.5" inkscape:document-units="px" inkscape:pageopacity="0.0" inkscape:pageshadow="2" inkscape:showpageshadow="false" inkscape:window-height="968" inkscape:window-width="1280" inkscape:window-x="-4" inkscape:window-y="-4" inkscape:zoom="1.0159787" objecttolerance="10" pagecolor="#ffffff" showborder="false" showgrid="false"/>
  <g id="layer1" inkscape:groupmode="layer" inkscape:label="Layer 1">
    <path d="M 530.82962,0.5 L 750.49875,220.1704 L 750.5,530.82958 L 530.82962,750.5 L 220.17038,750.5 L 0.5,530.82958 L 0.5,220.1704 L 220.16975,0.5006125 L 530.82962,0.5 z" id="polygon5" style="fill:#ffffff;fill-opacity:1;fill-rule:evenodd;stroke:#000000;stroke-opacity:1"/>
    <path d="M 731.74874,227.93652 L 731.75,523.06347 L 523.06348,731.75 L 227.93651,731.75 L 19.25,523.06347 L 19.25,227.93713 L 227.93651,19.250598 L 523.06223,19.249997 L 731.74874,227.93652 z" id="polygon9" style="fill:#af1e2d;fill-opacity:1;fill-rule:evenodd"/>
    <g id="g3315" style="fill:#ffffff;fill-opacity:1" transform="translate(0.5,0.5)">
      <path d="M 206.30665,432.50956 C 206.3065,442.73114 204.50024,452.26438 200.88788,461.10929 C 197.27521,469.95429 192.29185,477.61662 185.93776,484.09631 C 179.5834,490.57604 172.23099,495.74763 163.88049,499.61112 C 155.52977,503.47461 146.49468,505.40635 136.7752,505.40636 C 125.80829,505.40635 115.96514,503.28828 107.24573,499.05213 C 98.526204,494.81599 91.175689,489.0854 85.194161,481.86035 C 79.212565,474.63534 74.601857,466.28663 71.362023,456.8142 C 68.122149,447.34185 66.502222,437.4987 66.502237,427.28472 L 101.63872,427.28472 C 101.63867,432.51724 102.32315,437.68694 103.69215,442.79383 C 105.06105,447.90084 107.17912,452.51155 110.04638,456.62597 C 112.91351,460.74048 116.52793,464.04307 120.88963,466.53377 C 125.2512,469.02454 130.54638,470.26991 136.7752,470.26988 C 141.51321,470.26991 146.06308,469.27361 150.42481,467.28099 C 154.78635,465.28844 158.52435,462.54673 161.63883,459.05586 C 164.75308,455.56507 167.24382,451.51526 169.11103,446.9064 C 170.97802,442.29764 171.91157,437.4987 171.91169,432.50956 C 171.91157,425.28461 170.41713,418.86954 167.42836,413.26435 C 164.43937,407.65934 159.20693,401.9896 151.73102,396.2551 C 150.48366,395.00794 142.57225,388.46929 136.96343,384.85286 C 131.35445,381.23666 122.19577,375.07067 109.48739,366.35487 C 99.273424,359.37334 91.611092,351.20906 86.500371,341.862 C 81.38958,332.51526 78.834202,322.23671 78.834229,311.02632 C 78.834202,302.05226 80.454129,293.64081 83.694016,285.79193 C 86.933838,277.94349 91.481802,271.02837 97.337923,265.04658 C 103.19395,259.06525 109.98548,254.3918 117.71252,251.02621 C 125.43943,247.66112 133.78624,245.97844 142.75297,245.97819 C 151.72712,245.97844 160.01499,247.59837 167.61659,250.83798 C 175.21797,254.07808 181.82126,258.5652 187.4265,264.29936 C 193.03146,270.03398 197.51668,276.88825 200.88217,284.86218 C 204.24736,292.83655 206.05552,301.55792 206.30665,311.02632 L 171.91169,311.02632 C 171.41722,302.30324 168.42834,295.32538 162.94504,290.09273 C 157.46151,284.8605 150.73083,282.24428 142.75297,282.24406 C 134.53156,282.24428 127.5556,284.98599 121.82509,290.46919 C 116.09443,295.95282 113.22913,302.80518 113.2292,311.02632 C 113.22913,317.25524 114.84906,322.48768 118.08898,326.72365 C 121.32877,330.95997 127.5575,335.69427 136.7752,340.92655 C 160.95234,354.88242 178.58521,369.0872 189.67386,383.54094 C 200.76224,397.99492 206.3065,414.31777 206.30665,432.50956 L 206.30665,432.50956 z" id="text3287" sodipodi:nodetypes="csssssssccssssssssscscsssssssssccssssscscc" style="font-size:373.81567383px;font-style:normal;font-variant:normal;font-weight:normal;font-stretch:normal;text-align:center;line-height:125%;writing-mode:lr-tb;text-anchor:middle;fill:#ffffff;fill-opacity:1;stroke:none;stroke-width:1px;stroke-linecap:butt;stroke-linejoin:miter;stroke-opacity:1;font-family:Roadgeek 2005 Series C;-inkscape-font-specification:Roadgeek 2005 Series C" transform="scale(1.0018461,0.9981573)"/>
      <path d="M 301.7237,283.57714 L 301.7237,500.63812 L 265.48986,500.63812 L 265.48986,283.57714 L 219.90683,283.57714 L 219.90683,250.31908 L 347.30674,250.31908 L 347.30674,283.57714 L 301.7237,283.57714 z" id="text3293" style="font-size:373.60302734px;font-style:normal;font-variant:normal;font-weight:normal;font-stretch:normal;text-align:center;line-height:125%;writing-mode:lr-tb;text-anchor:middle;fill:#ffffff;fill-opacity:1;stroke:none;stroke-width:1px;stroke-linecap:butt;stroke-linejoin:miter;stroke-opacity:1;font-family:Roadgeek 2005 Series C;-inkscape-font-specification:Roadgeek 2005 Series C" transform="scale(1.0012762,0.9987254)"/>
      <path d="M 511.70697,375.80538 C 511.7068,395.01839 510.6464,411.36229 508.52576,424.83713 C 506.40479,438.31212 502.72099,451.03885 497.47435,463.01735 C 491.23743,477.98867 483.44147,488.90491 474.08646,495.76611 C 464.73118,502.62732 452.94111,506.05792 438.71621,506.05792 C 423.74483,506.05792 411.57971,502.62732 402.22082,495.76611 C 392.86181,488.90491 385.06395,477.98867 378.82722,463.01735 C 373.588,450.78755 369.908,437.998 367.78723,424.64865 C 365.6664,411.29947 364.60599,395.01839 364.60602,375.80538 C 364.60599,356.84392 365.6664,340.56284 367.78723,326.9621 C 369.908,313.36172 373.588,300.57216 378.82722,288.5934 C 385.31525,273.62234 393.23875,262.82984 402.59777,256.21589 C 411.95666,249.60242 423.99613,246.29557 438.71621,246.29531 C 453.18479,246.29557 465.03578,249.60242 474.26922,256.21589 C 483.50239,262.82984 491.23743,273.87364 497.47435,289.3473 C 499.97194,295.58428 502.15747,301.82104 504.03095,308.05761 C 505.9041,314.29457 507.40237,320.84355 508.52576,327.70458 C 509.64882,334.56595 510.45983,341.92785 510.95879,349.79028 C 511.45741,357.65302 511.7068,366.32471 511.70697,375.80538 L 511.70697,375.80538 z M 477.26767,375.80538 C 477.26753,368.81485 477.08096,362.45053 476.70796,356.71241 C 476.33468,350.97458 475.83589,345.67257 475.21159,340.80636 C 474.58702,335.94048 473.77601,331.2629 472.77856,326.77363 C 471.78086,322.28471 470.65763,317.7937 469.40888,313.30061 C 466.16472,302.06853 462.10968,293.95655 457.24375,288.96464 C 452.37759,283.97316 446.20175,281.47731 438.71621,281.47709 C 423.24223,281.47731 412.63821,291.83384 406.90411,312.54671 C 403.9037,322.0277 401.84381,331.57132 400.72445,341.1776 C 399.60497,350.7842 399.04527,362.57428 399.04532,376.54785 C 399.04527,383.28734 399.23183,389.46508 399.60503,395.08111 C 399.97811,400.69735 400.4769,405.93844 401.1014,410.8044 C 401.72578,415.67053 402.53679,420.47376 403.53443,425.21408 C 404.53194,429.95455 405.65517,434.81869 406.90411,439.80652 C 412.63821,460.51964 423.24223,470.87617 438.71621,470.87614 C 446.20175,470.87617 452.37759,468.38032 457.24375,463.38859 C 462.10968,458.39693 466.16472,450.53625 469.40888,439.80652 C 470.90131,434.81869 472.14828,430.01737 473.1498,425.40255 C 474.15105,420.78788 474.96206,415.98466 475.58283,410.99287 C 476.20332,406.00127 476.63929,400.69735 476.89072,395.08111 C 477.14188,389.46508 477.26753,383.03985 477.26767,375.80538 L 477.26767,375.80538 z" id="text3299" style="font-size:374.2975769px;font-style:normal;font-variant:normal;font-weight:normal;font-stretch:normal;text-align:center;line-height:125%;writing-mode:lr-tb;text-anchor:middle;fill:#ffffff;fill-opacity:1;stroke:none;stroke-width:1px;stroke-linecap:butt;stroke-linejoin:miter;stroke-opacity:1;font-family:Roadgeek 2005 Series C;-inkscape-font-specification:Roadgeek 2005 Series C" transform="scale(1.0031376,0.9968722)"/>
      <path d="M 683.95009,319.88567 C 683.94992,342.74672 678.29539,360.14268 666.98646,372.07359 C 655.67723,384.00476 639.46073,389.97028 618.3369,389.97017 L 579.56288,389.97017 L 579.56288,499.57959 L 543.76972,499.57959 L 543.76972,249.7898 L 618.3369,249.7898 C 628.03029,249.79005 636.91599,251.46821 644.99403,254.82428 C 653.07182,258.18084 660.03096,262.90433 665.87148,268.99477 C 671.7117,275.08567 676.18489,282.48095 679.29107,291.18061 C 682.39692,299.88069 683.94992,309.44904 683.95009,319.88567 L 683.95009,319.88567 z M 648.90784,319.88567 C 648.90771,309.44904 645.92495,300.99947 639.95956,294.53693 C 633.99391,288.0748 626.16441,284.84364 616.47101,284.84343 L 579.56288,284.84343 L 579.56288,355.67883 L 616.47101,355.67883 C 626.90772,355.67897 634.92306,352.57106 640.51705,346.35509 C 646.11078,340.13942 648.90771,331.31629 648.90784,319.88567 L 648.90784,319.88567 z" id="text3305" style="font-size:372.81311035px;font-style:normal;font-variant:normal;font-weight:normal;font-stretch:normal;text-align:center;line-height:125%;writing-mode:lr-tb;text-anchor:middle;fill:#ffffff;fill-opacity:1;stroke:none;stroke-width:1px;stroke-linecap:butt;stroke-linejoin:miter;stroke-opacity:1;font-family:Roadgeek 2005 Series C;-inkscape-font-specification:Roadgeek 2005 Series C" transform="scale(0.9991592,1.0008415)"/>
    </g>
  </g>
</svg>
